<svg version="1" xmlns="http://www.w3.org/2000/svg" width="533.333" height="533.333" viewBox="0 0 400.000000 400.000000"><path d="M0 200v200h400V0H0v200zm138.2-79c20.4 3 31.4 14 33.4 33.3.8 8-.9 18.4-4.1 24.7-1.3 2.6-4.5 6.6-7.1 8.8-8.4 7.5-19.4 10.1-42.1 10.2H105v53H87V120h22.3c12.2 0 25.2.5 28.9 1zm86.1 2.7c.8 2.1 8.1 21.9 16.2 44 8.1 22.2 15.1 40.3 15.4 40.3.4 0 7.4-18.1 15.6-40.3 8.1-22.1 15.5-41.9 16.3-44l1.4-3.7H316v131h-18l-.2-57.1-.3-57-16.4 44.5-16.5 44.6h-17.2l-16.5-44.5-16.4-44.6-.3 57.1-.2 57h-18V120h26.8l1.5 3.7z" fill="blue"/><path d="M105 159v24.2l15.8-.4c14.6-.3 16.1-.5 20.7-2.9 3.5-1.8 5.9-3.9 8-7.4 2.7-4.4 3-5.6 3-13.5s-.3-9.1-3-13.5c-2.1-3.5-4.5-5.6-8-7.4-4.6-2.4-6.1-2.6-20.7-2.9l-15.8-.4V159z" fill="blue"/></svg>